<svg xmlns="http://www.w3.org/2000/svg" width="37.366" height="66.627" viewBox="0 0 37.366 66.627"><defs><style>.a{fill:#ffc100;}</style></defs><path class="a" d="M1269.762,144.338h-26.693a5.343,5.343,0,0,0-5.337,5.337v40.852a5.343,5.343,0,0,0,5.337,5.337h26.693a5.343,5.343,0,0,0,5.336-5.337V149.675A5.343,5.343,0,0,0,1269.762,144.338Zm-.736,5.337v40.852a3.516,3.516,0,0,1-3.512,3.512h-22.444a3.516,3.516,0,0,1-3.513-3.512V149.675a3.516,3.516,0,0,1,3.513-3.512h22.444A3.516,3.516,0,0,1,1269.025,149.675Zm1.825,40.852V149.675a5.305,5.305,0,0,0-1.329-3.512h.24a3.516,3.516,0,0,1,3.512,3.512v40.852a3.516,3.516,0,0,1-3.512,3.512h-.24A5.305,5.305,0,0,0,1270.85,190.527Z" transform="translate(-1237.732 -129.237)"/><path class="a" d="M1255.5,183.364a1.306,1.306,0,0,0-.817-.235h-1.917c.188-.186.451-.416.782-.687q.773-.632,1.1-.927a3.959,3.959,0,0,0,.7-.886,2.52,2.52,0,0,0,.363-1.325,2.442,2.442,0,0,0-.664-1.67,2.34,2.34,0,0,0-.736-.526,3.607,3.607,0,0,0-1.466-.274,3.4,3.4,0,0,0-1.252.215,2.7,2.7,0,0,0-.909.577,2.452,2.452,0,0,0-.545.8,2.268,2.268,0,0,0-.184.864.952.952,0,0,0,.268.7.921.921,0,0,0,.667.27.874.874,0,0,0,.707-.31,2.048,2.048,0,0,0,.327-.628,2.924,2.924,0,0,1,.134-.342.844.844,0,0,1,.757-.427.873.873,0,0,1,.419.1.73.73,0,0,1,.288.272.762.762,0,0,1,.105.4,1.107,1.107,0,0,1-.113.467,2.025,2.025,0,0,1-.361.519,4.112,4.112,0,0,1-.634.541,8.319,8.319,0,0,0-.818.69c-.367.339-.782.747-1.236,1.219a2.084,2.084,0,0,0-.363.569,1.577,1.577,0,0,0-.168.627,1.029,1.029,0,0,0,.317.742,1.144,1.144,0,0,0,.837.31h3.74a.993.993,0,0,0,.75-.279.939.939,0,0,0,.261-.661A.875.875,0,0,0,1255.5,183.364Z" transform="translate(-1241.499 -139.263)"/><path class="a" d="M1258.433,181.656a1.44,1.44,0,0,0-.142.28.94.94,0,0,0-.055.312,1.11,1.11,0,0,0,.355.85,1.376,1.376,0,0,0,.956.309h2.2v.6a1.167,1.167,0,0,0,.264.807.932.932,0,0,0,.716.311.943.943,0,0,0,.719-.3,1.176,1.176,0,0,0,.262-.813v-.6a1.3,1.3,0,0,0,.741-.2.82.82,0,0,0,.341-.713.784.784,0,0,0-.44-.783,1.741,1.741,0,0,0-.642-.134v-3.589c0-.781-.408-1.229-1.118-1.229a.928.928,0,0,0-.646.254,4.311,4.311,0,0,0-.474.56l-2.879,3.849C1258.539,181.5,1258.487,181.575,1258.433,181.656Zm2.165-.079,1.152-1.557v1.557Z" transform="translate(-1244.057 -139.24)"/><path class="a" d="M1269.931,184.793a1.18,1.18,0,0,0,.309-.859v-.953l.333-.315,1,1.646.005.008a3.674,3.674,0,0,0,.416.554.863.863,0,0,0,.636.239.973.973,0,0,0,.727-.3,1.066,1.066,0,0,0,.274-.757.865.865,0,0,0-.109-.409q-.073-.137-.24-.4l-1.267-1.991.522-.478c.463-.417.678-.756.678-1.069a.9.9,0,0,0-.281-.665,1.011,1.011,0,0,0-1.244-.082,4.02,4.02,0,0,0-.489.457l-.964,1.011v-2.5a1.3,1.3,0,0,0-.272-.871,1.033,1.033,0,0,0-1.557.044,1.508,1.508,0,0,0-.245.908v5.913a1.278,1.278,0,0,0,.266.855A1.029,1.029,0,0,0,1269.931,184.793Z" transform="translate(-1247.122 -139.23)"/><path class="a" d="M1244.08,152.787v4.285h1.825v-4.285a1.1,1.1,0,0,1,1.1-1.1h8.108v-1.824H1247A2.924,2.924,0,0,0,1244.08,152.787Z" transform="translate(-1239.691 -130.943)"/><path class="a" d="M1264.127,130.923h.007c.7,0,1.144-.51,1.152-1.33.007-.659.005-1.328,0-1.976v-1.822c0-.642,0-1.3,0-1.953-.008-.822-.447-1.336-1.158-1.342a1.088,1.088,0,0,0-.785.3,1.413,1.413,0,0,0-.367,1.028c-.008,1.94-.008,3.873,0,5.746C1262.98,130.416,1263.409,130.918,1264.127,130.923Z" transform="translate(-1245.519 -122.5)"/><path class="a" d="M1276.879,137.152a1.156,1.156,0,0,0,.586.17,1.3,1.3,0,0,0,.965-.505l1.259-1.409q1.317-1.472,2.629-2.944a2.8,2.8,0,0,0,.245-.337c.041-.062.086-.132.165-.245l.106-.216-.11-.191c-.03-.051-.056-.108-.1-.192a1.67,1.67,0,0,0-.41-.607,1.042,1.042,0,0,0-1.482.129c-1.146,1.264-2.651,2.929-4.126,4.6a1.146,1.146,0,0,0-.29.948A1.134,1.134,0,0,0,1276.879,137.152Z" transform="translate(-1249.633 -124.945)"/><path class="a" d="M1245.706,137.494a1.264,1.264,0,0,0,.9.411h.02a1.062,1.062,0,0,0,.774-.363,1.129,1.129,0,0,0-.062-1.657l-.766-.8c-1.1-1.148-2.241-2.332-3.375-3.483a1.677,1.677,0,0,0-.654-.367.982.982,0,0,1-.111-.045l-.145-.052-.129.039a1.292,1.292,0,0,0-.937.872,1.171,1.171,0,0,0,.32,1.116C1242.784,134.48,1244.148,135.9,1245.706,137.494Z" transform="translate(-1238.796 -125.165)"/></svg>