<svg width="64" height="64" xmlns="http://www.w3.org/2000/svg" xmlns:xlink="http://www.w3.org/1999/xlink" xmlns:svgjs="http://svgjs.com/svgjs" viewBox="973 2443 64 64"><svg width="64" height="25" xmlns="http://www.w3.org/2000/svg" xmlns:xlink="http://www.w3.org/1999/xlink" xmlns:svgjs="http://svgjs.com/svgjs" viewBox="0 0.105 64 24.79" fill="#fff" x="973" y="2480"><svg xmlns="http://www.w3.org/2000/svg" xmlns:xlink="http://www.w3.org/1999/xlink" width="64" height="25" viewBox="0.351 0.498 62.65 24.268"><path paint-order="stroke fill markers" fill-rule="evenodd" d="M16.468 14.431c.34.748.687 1.498 1.027 2.252.407.906.302 1.245-.6 1.697-3.163 1.584-6.061 3.543-8.652 5.957-.807.75-1.594.494-1.774-.61-.207-1.275-.316-2.567-.42-3.856-.041-.512-.196-.766-.744-.831-1.069-.129-2.129-.331-3.193-.5-.243-.039-.524 0-.726-.11-.381-.21-.888-.437-1.017-.78-.098-.257.224-.816.514-1.053 1.761-1.447 3.564-2.844 5.361-4.247.41-.32.856-.597 1.347-.937-.445-.764-.877-1.5-1.302-2.24-.56-.975-.479-1.303.47-1.862C12.761 3.775 19.227 1.56 26.145.808c10.752-1.166 20.843.95 30.21 6.404 1.085.631 1.19 1.015.575 2.074-.4.689-.808 1.375-1.179 2.006 1.767 1.34 3.492 2.625 5.188 3.947.605.472 1.166 1.01 1.702 1.563.643.661.395 1.456-.517 1.622-1.242.225-2.494.4-3.746.561-.689.089-.968.37-.985 1.118-.026 1.167-.172 2.338-.372 3.489-.068.392-.384.918-.713 1.036-.31.113-.884-.123-1.172-.389a35.385 35.385 0 0 0-8.51-5.837c-.945-.464-1.062-.808-.655-1.757.157-.368.335-.727.502-1.091.166-.362.33-.725.492-1.082-6.23-4.294-22.817-4.322-30.498-.04zm38.604-5.719c-15.427-9.28-34.716-7.615-46.729.07l3.401 5.688c13.322-6.951 26.58-7.033 39.886.006l3.442-5.764zm.178 12.944c.02-.043.065-.095.069-.15.048-.768.096-1.537.135-2.306.067-1.331.164-1.471 1.499-1.805.884-.221 1.78-.392 2.94-.644l-5.13-3.776c-.58 1.031-1.062 1.887-1.54 2.745-.751 1.345-1.002 1.41-2.294.657-.687-.4-1.395-.765-2.17-1.189l-.773 1.663 7.264 4.805zM8.619 12.973l-4.995 3.692c1.28.29 2.318.543 3.363.755.72.145 1.03.519 1.026 1.276-.005.986.102 1.974.158 2.912l7.322-4.859-.746-1.564c-.186.037-.285.034-.362.073-.683.354-1.365.71-2.042 1.074-1.077.577-1.34.506-1.999-.559l-1.725-2.8z"/></svg></svg><svg width="48" height="39" xmlns="http://www.w3.org/2000/svg" xmlns:xlink="http://www.w3.org/1999/xlink" xmlns:svgjs="http://svgjs.com/svgjs" viewBox="0 0.31 48 38.38" fill="#fff" x="981" y="2443"><svg xmlns="http://www.w3.org/2000/svg" xmlns:xlink="http://www.w3.org/1999/xlink" width="48" height="39" viewBox="0.083 0.91 47.205 37.744"><path paint-order="stroke fill markers" fill-rule="evenodd" d="M5.386 38.09l-1.906.564c-.618-2.601-1.29-5.095-1.796-7.622C.482 25.023.071 18.937.084 12.818c.003-1.53.05-1.568 1.505-1.92 7.629-1.846 14.726-4.874 21.059-9.565.742-.55 1.303-.573 2.052-.019 6.356 4.707 13.44 7.827 21.136 9.59 1.373.314 1.45.413 1.452 1.78.013 8.485-.789 16.867-3.227 25.036-.079.264-.165.523-.283.894l-1.542-.468c.772-3.9 1.744-7.673 2.217-11.506.538-4.366.618-8.788.93-13.182.052-.726-.446-.704-.866-.809-5.868-1.455-11.434-3.652-16.622-6.769-1.267-.76-2.467-1.633-3.724-2.412-.223-.137-.671-.196-.854-.066-6.435 4.585-13.563 7.61-21.308 9.462-.037 8.54.815 16.93 3.377 25.225z"/></svg></svg><svg width="37" height="30" xmlns="http://www.w3.org/2000/svg" xmlns:xlink="http://www.w3.org/1999/xlink" xmlns:svgjs="http://svgjs.com/svgjs" viewBox="0 0.018 37 29.963" fill="#fff" x="986" y="2450"><svg xmlns="http://www.w3.org/2000/svg" xmlns:xlink="http://www.w3.org/1999/xlink" width="37" height="30" viewBox="0.758 0.955 35.736 28.939"><path paint-order="stroke fill markers" fill-rule="evenodd" d="M5.662 29.276l-1.88.618c-.594-2.684-1.333-5.269-1.712-7.905-.563-3.93-.866-7.898-1.294-11.85-.1-.907.216-1.407 1.137-1.688 5.592-1.712 10.9-4.067 15.847-7.206.63-.4 1.167-.381 1.79.022 4.92 3.183 10.21 5.562 15.839 7.192.7.203 1.128.52 1.104 1.34-.193 6.65-.964 13.21-2.978 19.583-.037.115-.077.229-.15.447l-1.78-.542c1.897-6.223 2.762-12.57 3.011-18.95-2.454-.929-4.9-1.708-7.215-2.768-2.738-1.254-5.373-2.734-8.03-4.16-.495-.266-.842-.305-1.33-.006A63.581 63.581 0 0 1 3.404 9.989c-.618.188-.717.48-.69 1.053.276 5.993 1.012 11.91 2.812 17.659.053.168.08.342.136.575z"/></svg></svg><svg width="26" height="12" xmlns="http://www.w3.org/2000/svg" xmlns:xlink="http://www.w3.org/1999/xlink" xmlns:svgjs="http://svgjs.com/svgjs" viewBox="0 0.133 26 11.734" fill="#fff" x="992" y="2495"><svg xmlns="http://www.w3.org/2000/svg" xmlns:xlink="http://www.w3.org/1999/xlink" width="26" height="12" viewBox="0.323 0.385 24.91 11.242"><path paint-order="stroke fill markers" fill-rule="evenodd" d="M23.613.414l1.62 1.21c-1.823 1.806-3.478 3.671-5.368 5.258-1.975 1.658-4.151 3.084-6.3 4.52-.39.261-1.197.306-1.598.076C7.567 8.952 3.742 5.725.546 1.77.47 1.675.418 1.563.323 1.409L1.689.385C3.135 1.889 4.441 3.462 5.966 4.78c1.93 1.668 4.043 3.121 6.064 4.686.46.355.814.328 1.308.018 3.576-2.254 6.759-4.956 9.492-8.184.236-.279.484-.548.783-.887z"/></svg></svg><svg width="13" height="8" xmlns="http://www.w3.org/2000/svg" xmlns:xlink="http://www.w3.org/1999/xlink" xmlns:svgjs="http://svgjs.com/svgjs" viewBox="0 0.816 13 6.368" fill="#fff" x="998" y="2493"><svg xmlns="http://www.w3.org/2000/svg" xmlns:xlink="http://www.w3.org/1999/xlink" width="13" height="8" viewBox="0.423 0.854 12.57 6.157"><path paint-order="stroke fill markers" fill-rule="evenodd" d="M.423 2.224L1.86.865l4.793 4.293 4.84-4.304 1.498 1.286c-1.949 1.634-3.776 3.22-5.68 4.708-.299.232-1.105.212-1.41-.028C4.05 5.357 2.274 3.796.421 2.224z"/></svg></svg><svg width="10" height="6" xmlns="http://www.w3.org/2000/svg" xmlns:xlink="http://www.w3.org/1999/xlink" xmlns:svgjs="http://svgjs.com/svgjs" viewBox="0 0.226 10 5.549" fill="#fff" x="1015" y="2446"><svg xmlns="http://www.w3.org/2000/svg" xmlns:xlink="http://www.w3.org/1999/xlink" width="10" height="6" viewBox="0.444 0.567 8.717 4.837"><path paint-order="stroke fill markers" fill-rule="evenodd" d="M.444 2.29L1.222.567 9.161 3.6l-.538 1.804L.444 2.29z"/></svg></svg><svg width="10" height="6" xmlns="http://www.w3.org/2000/svg" xmlns:xlink="http://www.w3.org/1999/xlink" xmlns:svgjs="http://svgjs.com/svgjs" viewBox="0 0.238 10 5.524" fill="#fff" x="985" y="2446"><svg xmlns="http://www.w3.org/2000/svg" xmlns:xlink="http://www.w3.org/1999/xlink" width="10" height="6" viewBox="0.3 0.501 8.714 4.814"><path paint-order="stroke fill markers" fill-rule="evenodd" d="M8.265.5l.748 1.7L.885 5.315.3 3.548 8.265.501z"/></svg></svg><svg width="4" height="4" xmlns="http://www.w3.org/2000/svg" xmlns:xlink="http://www.w3.org/1999/xlink" xmlns:svgjs="http://svgjs.com/svgjs" viewBox="0 0.169 4 3.661" fill="#fff" x="1025" y="2449"><svg xmlns="http://www.w3.org/2000/svg" xmlns:xlink="http://www.w3.org/1999/xlink" width="4" height="4" viewBox="0.558 0.991 2.516 2.303"><path paint-order="stroke fill markers" fill-rule="evenodd" d="M1.041.99l2.033.489-.35 1.815-2.166-.497.483-1.806z"/></svg></svg><svg width="3" height="3" xmlns="http://www.w3.org/2000/svg" xmlns:xlink="http://www.w3.org/1999/xlink" xmlns:svgjs="http://svgjs.com/svgjs" viewBox="0 0.162 3 2.675" fill="#fff" x="981" y="2450"><svg xmlns="http://www.w3.org/2000/svg" width="3" height="3" viewBox="0.307 0.013 2.509 2.238"><path paint-order="stroke fill markers" fill-rule="evenodd" d="M2.352.013l.465 1.733-2.17.505L.307.49 2.352.012z"/></svg></svg></svg>