<svg xmlns="http://www.w3.org/2000/svg" width="55.805" height="68.029" viewBox="0 0 55.805 68.029"><defs><style>.a{fill:#fff;}</style></defs><g transform="translate(0 0)"><path class="a" d="M729.456,1233.75h-5.529a1.329,1.329,0,1,0,0,2.657h5.529a1.329,1.329,0,0,0,0-2.657Zm0,0" transform="translate(-698.789 -1173.693)"/><path class="a" d="M743.476,1159.63H735.5v-2.886a3.986,3.986,0,0,0-1.329-7.744H699.629a3.986,3.986,0,0,0-1.329,7.744v2.886h-7.972a1.329,1.329,0,0,0-1.329,1.328v9.3a10.641,10.641,0,0,0,10.63,10.63h1.123q.383.667.822,1.309a18.684,18.684,0,0,0,7.384,6.3,4.072,4.072,0,0,0-.028.466,3.993,3.993,0,0,0,3.011,3.866c-1.6,5.319-4.434,10.917-7.794,10.917h-3.189a1.328,1.328,0,0,0-1.318,1.163l-1.329,10.63a1.329,1.329,0,0,0,1.318,1.494h34.546a1.329,1.329,0,0,0,1.318-1.494l-1.329-10.63a1.328,1.328,0,0,0-1.318-1.163h-3.189c-2.034,0-3.753-2.136-4.836-3.928a31.586,31.586,0,0,1-2.958-6.989,3.994,3.994,0,0,0,3.011-3.866,4.065,4.065,0,0,0-.028-.466,18.692,18.692,0,0,0,7.385-6.3q.44-.639.82-1.307h1.124a10.641,10.641,0,0,0,10.629-10.63v-9.3a1.329,1.329,0,0,0-1.329-1.328Zm-51.819,10.629v-7.972H698.3v9.4a18.451,18.451,0,0,0,1.195,6.541,7.979,7.979,0,0,1-7.838-7.969Zm41.013,44.113H701.134l1-7.972h29.543Zm-8.251-10.63H709.384a16.19,16.19,0,0,0,1.867-2.543,35.226,35.226,0,0,0,3.423-8.254h4.457a35.282,35.282,0,0,0,3.417,8.243,16.255,16.255,0,0,0,1.872,2.553Zm-3.531-13.454h-7.972a1.329,1.329,0,1,1,0-2.657h7.972a1.329,1.329,0,1,1,0,2.657Zm2.784-4.178a3.973,3.973,0,0,0-2.784-1.137h-7.972a3.973,3.973,0,0,0-2.784,1.137,15.9,15.9,0,0,1-9.175-14.424v-14.714h9.964a1.329,1.329,0,1,0,0-2.657H699.629a1.329,1.329,0,1,1,0-2.657h34.546a1.329,1.329,0,1,1,0,2.657H722.88a1.329,1.329,0,0,0,0,2.657h9.966v14.714a15.9,15.9,0,0,1-9.175,14.424Zm18.475-15.852a7.98,7.98,0,0,1-7.839,7.969,18.434,18.434,0,0,0,1.2-6.541v-9.4h6.643Zm0,0" transform="translate(-689 -1149)"/><path class="a" d="M727.828,1159.157a1.329,1.329,0,1,0,0-2.657h0a1.329,1.329,0,1,0,0,2.657Zm0,0" transform="translate(-699.926 -1151.185)"/><path class="a" d="M728.7,1180.405h-.145v-9.3a1.329,1.329,0,0,0-1.993-1.151l-1.473.85a1.329,1.329,0,0,0,.809,2.472v7.13h-.144a1.328,1.328,0,1,0,0,2.656H728.7a1.328,1.328,0,1,0,0-2.656Zm0,0" transform="translate(-699.32 -1155.053)"/></g></svg>