<svg xmlns="http://www.w3.org/2000/svg" width="60.742" height="60.538" viewBox="0 0 60.742 60.538"><defs><style>.a{fill:#ffc100;}</style></defs><path class="a" d="M1108.884,163.874q-3.412-4.589-6.812-9.187a1.933,1.933,0,0,0-1.761-.887q-5.56.025-11.119.013h-6.734q-5.623,0-11.246-.01h-.011a1.8,1.8,0,0,0-1.585.78q-3.278,4.434-6.571,8.858l-2.843,3.828a1.363,1.363,0,0,0,.124,2.155q12.159,12.977,24.324,25.948a1.7,1.7,0,0,0,1.151.655h0a1.728,1.728,0,0,0,1.166-.666q12.165-12.973,24.323-25.949c.757-.808.78-1.25.112-2.149Zm-.806,3.144h-10.471l3.537-9.329Zm-18.213,20.538,1.619-4.286q2.488-6.589,4.96-13.184c.167-.444.307-.552.739-.552h.027c2.563.025,5.129.023,7.69.019l2.808,0-18.483,19.717Q1089.543,188.411,1089.865,187.556Zm-1.5-31.194h10.574l-3.523,9.378Zm5.586,13.233-8.146,21.6-8.146-21.6Zm-15.577-2.58,7.432-9.845,7.426,9.845Zm-5.71-10.658h10.589l-7.054,9.371Zm-5.22,13.2c2.364,0,4.728,0,7.093-.011.332,0,.437.052.544.338q2.9,7.753,5.835,15.5l1.467,3.887L1063.9,169.552Zm6.572-2.515h-10.52l6.974-9.357Z" transform="translate(-1055.537 -135.488)"/><path class="a" d="M1097.05,137.508h.012c.781,0,1.253-.556,1.263-1.492.009-.842.006-1.684,0-2.526l0-1.069,0-1.026c0-.9,0-1.808,0-2.711-.009-.937-.479-1.5-1.258-1.506a1.222,1.222,0,0,0-.868.329,1.6,1.6,0,0,0-.407,1.166q-.016,3.664,0,7.328C1095.795,136.939,1096.265,137.5,1097.05,137.508Z" transform="translate(-1066.792 -127.178)"/><path class="a" d="M1137.728,146.14c-.07-.094-.13-.2-.188-.294-.156-.261-.316-.53-.6-.61a1.758,1.758,0,0,0-1.378.176c-1.841,1.334-3.68,2.729-5.458,4.079l-.569.432a1.293,1.293,0,0,0-.4,1.863,1.154,1.154,0,0,0,.958.508,1.582,1.582,0,0,0,.939-.351l-.191-.255h0l6-4.533h0l.194.252a2.23,2.23,0,0,0,.484-.587c.063-.1.129-.2.2-.3l.142-.19Z" transform="translate(-1077.127 -132.795)"/><path class="a" d="M1060.779,151.847l-.126.292a1.255,1.255,0,0,0,.5.106,1.157,1.157,0,0,0,.648-.2,1.45,1.45,0,0,0,.591-1.273l0-.108-.066-.084c-.027-.034-.057-.08-.091-.131a2.389,2.389,0,0,0-.511-.594c-1.858-1.423-3.731-2.827-5.6-4.23l-.249-.186c-1.082-.81-1.729-.234-1.958.052a1.164,1.164,0,0,0-.267.882,1.677,1.677,0,0,0,.728,1.086l.192-.254h0Z" transform="translate(-1053.633 -132.75)"/><path class="a" d="M1114.554,141.282a1.456,1.456,0,0,0,.376.052,1.326,1.326,0,0,0,1.18-.88l1.065-2.139q1.128-2.264,2.252-4.528a3.429,3.429,0,0,0,.175-.464c.03-.092.064-.2.107-.318l.067-.189-.142-.142c-.063-.063-.125-.137-.188-.211a1.991,1.991,0,0,0-.644-.562,1.118,1.118,0,0,0-1.511.564c-.975,1.924-2.256,4.464-3.523,7.052a1.258,1.258,0,0,0-.035,1.087A1.244,1.244,0,0,0,1114.554,141.282Z" transform="translate(-1072.362 -128.617)"/><path class="a" d="M1076.507,140.567a1.4,1.4,0,0,0,.829.746,1.121,1.121,0,0,0,.312.045,1.2,1.2,0,0,0,.607-.171,1.238,1.238,0,0,0,.479-1.771l-.6-1.213c-.925-1.864-1.849-3.729-2.8-5.58a1.9,1.9,0,0,0-.583-.616c-.05-.038-.094-.071-.125-.1l-.089-.085-.124,0a1.422,1.422,0,0,0-1.3.607,1.289,1.289,0,0,0-.027,1.279C1074.108,135.787,1075.193,137.967,1076.507,140.567Z" transform="translate(-1059.659 -128.627)"/></svg>