<svg xmlns="http://www.w3.org/2000/svg" width="86.641" height="86.641" viewBox="0 0 86.641 86.641"><defs></defs><g transform="translate(-917.272 -5201.359)"><path d="M980.46,5201.359H940.724a23.479,23.479,0,0,0-23.452,23.453v39.735A23.479,23.479,0,0,0,940.724,5288H980.46a23.48,23.48,0,0,0,23.453-23.453v-39.735a23.48,23.48,0,0,0-23.453-23.453Zm-19.868,67.01a23.69,23.69,0,1,1,23.69-23.69,23.716,23.716,0,0,1-23.69,23.69Zm24.257-41.793a7,7,0,1,1,7-7,7.008,7.008,0,0,1-7,7Zm0,0"/><path class="a" d="M960.592,5226.068a18.611,18.611,0,1,0,18.611,18.611,18.633,18.633,0,0,0-18.611-18.611Zm0,0"/><path class="a" d="M984.849,5217.654a1.922,1.922,0,1,0,1.921,1.921,1.924,1.924,0,0,0-1.921-1.921Zm0,0"/></g></svg>
