<svg xmlns="http://www.w3.org/2000/svg" xmlns:xlink="http://www.w3.org/1999/xlink" width="296.232" height="68.746" viewBox="0 0 296.232 68.746"><defs><style>.a{fill:rgba(0,0,0,0);}.b{fill:#9c9b9b;}.c{fill:#333;}.d{clip-path:url(#a);}.e{clip-path:url(#b);}</style><clipPath id="a"><path class="a" d="M522.415,415.7c3.724,1-47.425,50.151-47.425,50.151l46.571-1.755,4.826-49.152Z" transform="translate(-474.991 -414.949)"/></clipPath><clipPath id="b"><path class="a" d="M1525.222,463.282c-.2,12.043-8.825,20.634-20.683,20.634a17.945,17.945,0,0,1-9.41-2.567l-.257,15.217h-13.205l.89-52.61h9.083l1.621,3.07a18.284,18.284,0,0,1,11.975-4.337C1517.094,442.689,1525.425,451.24,1525.222,463.282Zm-10.875-2.566a8.351,8.351,0,0,0-8.531-8.846,8.693,8.693,0,0,0-8.83,8.846,8.351,8.351,0,0,0,8.531,8.845A8.711,8.711,0,0,0,1514.347,460.716Z" transform="translate(-1481.667 -442.689)"/></clipPath></defs><g transform="translate(-873 -5621.937)"><g transform="translate(873 5621.937)"><path class="b" d="M518.827,444.157l-.654,38.652H507.847l-1.1-2.733a18.687,18.687,0,0,1-11.77,4.041c-11.858,0-20.188-8.622-19.985-20.635.2-11.971,8.823-20.491,20.68-20.491a18.155,18.155,0,0,1,11.779,4.153l1.417-2.989Zm-13.032,19.356a8.337,8.337,0,0,0-8.533-8.785,8.66,8.66,0,0,0-8.829,8.785,8.344,8.344,0,0,0,8.532,8.816A8.685,8.685,0,0,0,505.795,463.512Z" transform="translate(-424.085 -428.061)"/><path class="b" d="M250.8,430.919l-.2,11.661h-9.19c-8.576,0-13.7-5.226-13.555-13.815l.247-14.585h-7.1l.053-3.112,17.687-18.441h2.744l-.191,11.3h9.742l-.174,10.253h-9.405l-.208,12.3c-.047,2.768,1.6,4.438,4.419,4.438Z" transform="translate(-221.005 -387.792)"/><path class="b" d="M394.148,448.092l-.206,12.183h-5.185c-4.729,0-6.745,2.067-6.828,7l-.332,19.655H368.239l.653-38.652h8.949l2.011,4.289c2.788-3.152,6.142-4.473,10.757-4.473Z" transform="translate(-338.729 -432.14)"/><path class="c" d="M712.658,484.114c-12.437,0-21.266-8.685-21.064-20.645s9.281-20.479,21.8-20.479c10.9,0,18.956,6.848,20.243,17.129H720.626a7.711,7.711,0,0,0-7.475-5.2c-4.694,0-8.095,3.556-8.18,8.592s3.236,8.674,7.888,8.674a7.98,7.98,0,0,0,7.688-5.639h13.124c-1.688,10.5-10.094,17.57-21.014,17.57Z" transform="translate(-597.272 -428.06)"/><path class="c" d="M923.378,431.98l-9.436-16.346-.276,16.346H900.308l.889-52.61h13.357l-.492,29.1,9.494-15.142h15l-12.4,18.422,12.967,20.23Z" transform="translate(-764.156 -377.192)"/><path class="c" d="M1080.44,384.638H1093.8l-.653,38.652h-13.357Zm.374-16.136h13.153l-.191,11.3h-13.153Z" transform="translate(-907.662 -368.502)"/><path class="c" d="M1169.423,430.919l-.2,11.661h-9.19c-8.576,0-13.7-5.226-13.555-13.815l.247-14.585h-7.1l.053-3.112,17.686-18.441h2.744l-.191,11.3h9.742l-.174,10.253h-9.405l-.208,12.3c-.047,2.768,1.6,4.438,4.419,4.438Z" transform="translate(-955.511 -387.792)"/><path class="c" d="M1285.739,471.07l.373-22.059h13.357l-.363,21.48c-.069,4.08,2.09,6.479,5.659,6.479s5.769-2.44,5.837-6.479l.363-21.48h13.358l-.373,22.059c-.182,10.815-7.932,17.86-19.386,17.86S1285.557,481.885,1285.739,471.07Z" transform="translate(-1072.333 -432.875)"/><path class="c" d="M1525.222,463.282c-.2,12.043-8.825,20.634-20.683,20.634a17.945,17.945,0,0,1-9.41-2.567l-.257,15.217h-13.205l.89-52.61h9.083l1.621,3.07a18.284,18.284,0,0,1,11.975-4.337C1517.094,442.689,1525.425,451.24,1525.222,463.282Zm-13.44,0a8.351,8.351,0,0,0-8.531-8.846,8.693,8.693,0,0,0-8.83,8.846,8.35,8.35,0,0,0,8.531,8.845A8.711,8.711,0,0,0,1511.782,463.281Z" transform="translate(-1228.994 -427.82)"/><g transform="translate(50.906 9.309)"><g class="d" transform="translate(0 0)"><path class="c" d="M518.818,444.115l-.653,38.652H507.838l-1.1-2.733a18.685,18.685,0,0,1-11.77,4.041c-11.858,0-20.188-8.622-19.985-20.635.2-11.971,8.823-20.491,20.68-20.491a18.154,18.154,0,0,1,11.779,4.153l1.417-2.989ZM505.786,463.47a8.337,8.337,0,0,0-8.533-8.785,8.66,8.66,0,0,0-8.829,8.785,8.344,8.344,0,0,0,8.532,8.816A8.685,8.685,0,0,0,505.786,463.47Z" transform="translate(-474.984 -437.337)"/></g></g><rect class="c" width="21.02" height="19.594" transform="translate(263.267 26.021)"/><g transform="translate(252.673 14.869)"><g class="e"><line class="b" x1="38.622" y2="73.347" transform="translate(-193.818 -12.691)"/><path class="b" d="M1723.873,827.661" transform="translate(-1675.328 -750.502)"/><path class="b" d="M1515.094,443.029" transform="translate(-1508.394 -442.961)"/><path class="b" d="M1469.627,617.721l24.873-26.386a1.433,1.433,0,0,1,2.508.009l25.253,22.9c.512.936-12.709,2.344-13.776,2.381l-26.1.9C1481.268,617.567,1469.083,618.7,1469.627,617.721Z" transform="translate(-1472.026 -560.954)"/></g></g><path class="b" d="M1580.164,503.528h0a6.4,6.4,0,1,0-11.382,0h0a6.412,6.412,0,0,0,.92,1.337l3.788,5.506a1.193,1.193,0,0,0,1.966,0l3.794-5.514a6.42,6.42,0,0,0,.907-1.318Z" transform="translate(-1298.081 -469.008)"/></g></g></svg>