<svg xmlns="http://www.w3.org/2000/svg" xmlns:xlink="http://www.w3.org/1999/xlink" width="329" height="76.351" viewBox="0 0 329 76.351"><defs><style>.a{fill:rgba(0,0,0,0);}.b{fill:#9c9b9b;}.c{fill:#ffc100;}.d{clip-path:url(#a);}.e{fill:#fbbf18;}.f{clip-path:url(#b);}.g{fill:#fff;}</style><clipPath id="a"><path class="a" d="M527.661,415.788c4.136,1.111-52.671,55.7-52.671,55.7l51.723-1.949,5.36-54.589Z" transform="translate(-474.991 -414.949)"/></clipPath><clipPath id="b"><path class="a" d="M1530.04,465.56c-.226,13.375-9.8,22.917-22.971,22.917a19.93,19.93,0,0,1-10.45-2.851l-.286,16.9h-14.666l.988-58.429h10.088l1.8,3.41a20.306,20.306,0,0,1,13.3-4.817C1521.013,442.689,1530.266,452.186,1530.04,465.56Zm-12.078-2.85a9.275,9.275,0,0,0-9.475-9.824,9.654,9.654,0,0,0-9.807,9.824,9.274,9.274,0,0,0,9.474,9.824A9.675,9.675,0,0,0,1517.963,462.71Z" transform="translate(-1481.667 -442.689)"/></clipPath></defs><g transform="translate(-221.005 -368.502)"><path class="b" d="M523.676,444.285l-.726,42.928H511.482l-1.219-3.036a20.754,20.754,0,0,1-13.071,4.488c-13.17,0-22.421-9.576-22.2-22.917.225-13.295,9.8-22.757,22.968-22.757a20.164,20.164,0,0,1,13.082,4.612l1.574-3.319Zm-14.474,21.5a9.259,9.259,0,0,0-9.477-9.757,9.618,9.618,0,0,0-9.806,9.757,9.267,9.267,0,0,0,9.476,9.791A9.646,9.646,0,0,0,509.2,465.782Z" transform="translate(-197.449 -57.908)"/><path class="b" d="M254.094,435.155l-.218,12.95H243.668c-9.524,0-15.215-5.8-15.055-15.343l.274-16.2h-7.883l.058-3.457,19.643-20.481h3.048l-.212,12.551h10.82l-.193,11.387H243.723l-.231,13.661c-.052,3.074,1.778,4.929,4.908,4.929Z" transform="translate(0 -18.755)"/><path class="b" d="M397.014,448.092l-.229,13.531h-5.759c-5.252,0-7.491,2.3-7.583,7.772l-.369,21.829H368.239l.726-42.928H378.9l2.234,4.764c3.1-3.5,6.821-4.968,11.947-4.968Z" transform="translate(-114.46 -61.873)"/><path class="c" d="M714.989,488.663c-13.812,0-23.618-9.646-23.394-22.929s10.308-22.745,24.212-22.745c12.1,0,21.053,7.605,22.482,19.024h-14.45a8.564,8.564,0,0,0-8.3-5.774c-5.213,0-8.99,3.949-9.085,9.542s3.593,9.634,8.761,9.634a8.862,8.862,0,0,0,8.539-6.263h14.576c-1.875,11.657-11.211,19.513-23.339,19.513Z" transform="translate(-365.834 -57.906)"/><path class="c" d="M925.93,437.8l-10.48-18.154-.307,18.154H900.308l.987-58.43H916.13l-.546,32.319,10.544-16.817h16.657l-13.768,20.46,14.4,22.468Z" transform="translate(-528.091 -8.449)"/><path class="c" d="M1080.512,386.423h14.834l-.725,42.928h-14.835Zm.415-17.921h14.608l-.212,12.548h-14.608Z" transform="translate(-667.617)"/><path class="c" d="M1172.719,435.155l-.219,12.95h-10.207c-9.524,0-15.215-5.8-15.055-15.343l.274-16.2h-7.883l.058-3.457,19.643-20.481h3.048l-.212,12.551h10.82l-.193,11.387h-10.445l-.231,13.661c-.052,3.074,1.778,4.929,4.908,4.929Z" transform="translate(-714.14 -18.755)"/><path class="c" d="M1285.739,473.51l.415-24.5h14.835l-.4,23.856c-.077,4.531,2.322,7.2,6.285,7.2s6.407-2.71,6.483-7.2l.4-23.856h14.835l-.415,24.5c-.2,12.011-8.809,19.836-21.531,19.836S1285.537,485.522,1285.739,473.51Z" transform="translate(-827.722 -62.588)"/><path class="c" d="M1530.04,465.56c-.226,13.375-9.8,22.917-22.971,22.917a19.93,19.93,0,0,1-10.45-2.851l-.286,16.9h-14.666l.988-58.429h10.088l1.8,3.41a20.306,20.306,0,0,1,13.3-4.817C1521.013,442.689,1530.266,452.186,1530.04,465.56Zm-14.927,0a9.275,9.275,0,0,0-9.475-9.824,9.654,9.654,0,0,0-9.807,9.824,9.274,9.274,0,0,0,9.474,9.823A9.675,9.675,0,0,0,1515.113,465.559Z" transform="translate(-980.039 -57.673)"/><g transform="translate(277.542 378.841)"><g class="d" transform="translate(0 0)"><path class="c" d="M523.667,444.244l-.726,42.927H511.473l-1.219-3.036a20.752,20.752,0,0,1-13.072,4.488c-13.169,0-22.421-9.576-22.2-22.917.225-13.295,9.8-22.757,22.968-22.757a20.162,20.162,0,0,1,13.082,4.613l1.574-3.32Zm-14.474,21.5a9.259,9.259,0,0,0-9.476-9.757,9.618,9.618,0,0,0-9.806,9.757,9.267,9.267,0,0,0,9.476,9.791A9.646,9.646,0,0,0,509.193,465.74Z" transform="translate(-474.984 -436.716)"/></g></g><rect class="e" width="23.346" height="21.761" transform="translate(513.393 397.401)"/><g transform="translate(501.628 385.016)"><g class="f"><line class="b" x1="42.894" y2="81.461" transform="translate(-215.257 -14.095)"/><path class="b" d="M1723.873,827.661" transform="translate(-1669.958 -741.966)"/><path class="b" d="M1515.094,443.029" transform="translate(-1507.653 -442.953)"/><path class="b" d="M1469.629,620.721l27.625-29.305a1.591,1.591,0,0,1,2.785.01l28.047,25.434c.569,1.039-14.115,2.6-15.3,2.644l-28.99,1C1482.558,620.55,1469.025,621.8,1469.629,620.721Z" transform="translate(-1472.293 -557.675)"/></g></g><path class="g" d="M1581.5,504.559h0a7.113,7.113,0,1,0-12.641,0h0a7.117,7.117,0,0,0,1.022,1.485l4.207,6.115a1.325,1.325,0,0,0,2.184,0l4.214-6.124a7.127,7.127,0,0,0,1.008-1.464Z" transform="translate(-1047.211 -97.719)"/></g></svg>