<svg width="51" height="54" xmlns="http://www.w3.org/2000/svg" xmlns:xlink="http://www.w3.org/1999/xlink" xmlns:svgjs="http://svgjs.com/svgjs" viewBox="0.144 0 50.711 54" fill="#fff"><svg xmlns="http://www.w3.org/2000/svg" width="51" height="54" viewBox="0.156 0.366 50.068 53.315"><path paint-order="stroke fill markers" fill-rule="evenodd" d="M27.77 2.977c3.138-3.041 8.47-1.224 8.506 3.754 4.019-.92 7.47 3.065 5.528 7.295 3.302.663 4.75 3.825 3.825 6.465 1.955.363 3.042 1.828 4.02 3.346 1.05 1.625.61 3.924-.9 5.24C47 30.6 45.233 32.102 43.473 33.61c-3.454 2.96-6.917 5.912-10.36 8.887-.945.817-1.973 1.507-3.175 1.788-2.876.674-5.232 2.177-7.34 4.21-1.443 1.392-3.02 2.644-4.558 3.934-1.969 1.65-4.428 1.67-6.337.068-.25-.21-.466-.464-.678-.715-3.195-3.76-6.39-7.52-9.578-11.284-1.91-2.255-1.68-5.133.556-7.055 1.023-.879 2.036-1.773 3.074-2.633 2.137-1.77 3.118-4.067 3.022-6.814-.045-1.296-.235-2.587-.372-3.878-.218-2.059-.39-4.112.195-6.144.616-2.141 1.76-3.941 3.443-5.39 2.649-2.278 5.3-4.555 7.96-6.822 2.411-2.055 5.765-1.813 7.883.558.183.204.355.417.561.658zm-5.634 15.868c-.188-.035-.374-.065-.56-.104-2.648-.569-4.329-3.19-3.776-5.856.291-1.412 1.167-2.396 2.242-3.262.772-.623 1.186-.608 1.84.145.24.274.472.554.707.831 2.252 2.652 4.493 5.315 6.761 7.953 1.262 1.468 3.372 1.634 4.778.428a3.375 3.375 0 0 0 .387-4.722 1152.25 1152.25 0 0 0-9.041-10.65c-1.248-1.454-3.269-1.59-4.729-.351-2.744 2.327-5.469 4.676-8.195 7.025-.998.86-1.718 1.928-2.25 3.133-.847 1.918-.787 3.907-.539 5.928.195 1.58.418 3.168.448 4.757.054 2.854-.832 5.41-2.917 7.422-1.243 1.2-2.585 2.296-3.891 3.43-1.46 1.266-1.6 2.808-.355 4.277 3.143 3.712 6.292 7.42 9.444 11.126 1.259 1.479 2.828 1.595 4.308.332 1.63-1.394 3.338-2.71 4.866-4.208 2.084-2.042 4.465-3.42 7.303-4.058.661-.147 1.38-.384 1.89-.803 2.337-1.916 4.608-3.912 6.878-5.857-1.981-1.235-3.531-2.782-3.85-5.255-2.894.493-5.753-1.467-5.81-4.964-4.072 1.053-7.441-2.786-5.939-6.697zm16.764 5.61l-.022-.026c1.404-1.203 2.847-2.363 4.199-3.623 1.08-1.006 1.045-2.772.049-3.86-1.058-1.155-2.742-1.292-3.912-.313-.556.466-1.12.926-1.647 1.424-.281.265-.546.576-.728.915-.72 1.336-1.795 2.21-3.233 2.652-.161.05-.333.112-.458.217-.652.542-1.31 1.077-1.927 1.656-1.365 1.279-1.26 3.406.2 4.49 1.082.801 2.486.725 3.618-.228 1.297-1.09 2.575-2.202 3.861-3.304zm1.374 1.645c-1.168 1.001-2.344 1.995-3.503 3.008-.878.766-1.02 1.966-.34 2.846.382.493.788.968 1.214 1.422.74.792 1.994.91 2.82.213 2.353-1.985 4.69-3.99 7.013-6.01.819-.712.907-1.968.243-2.83a19.95 19.95 0 0 0-1.243-1.465c-.784-.839-1.898-.877-2.776-.123L40.274 26.1zm-6.008-15.5c1.151 1.537 2.76 2.735 3.028 4.861.745-.638 1.389-1.186 2.026-1.74.129-.112.24-.247.35-.38.86-1.037.864-2.52.011-3.589-.853-1.07-2.393-1.444-3.53-.738-.677.42-1.236 1.03-1.885 1.586zm-8.37 7.115c-.446.382-.894.729-1.3 1.122a2.836 2.836 0 0 0-.56 3.297c.566 1.13 1.827 1.776 3.06 1.544 1.304-.245 2.026-1.317 3.12-2.117-2.113-.66-2.94-2.53-4.32-3.846zm6.936-8.816c1.106-.828 1.547-1.88 1.268-3.17-.254-1.18-1.04-1.886-2.203-2.139-1.098-.239-1.975.236-2.815.891l3.75 4.418zM20.9 11.815c-1.2.8-1.46 2.554-.573 3.848.723 1.057 2.512 1.845 4.252.486l-3.68-4.334z"/></svg></svg>