<svg width="62" height="70" xmlns="http://www.w3.org/2000/svg" xmlns:xlink="http://www.w3.org/1999/xlink" xmlns:svgjs="http://svgjs.com/svgjs" viewBox="0.092 0 61.816 70" fill="#fff"><svg xmlns="http://www.w3.org/2000/svg" width="62" height="70" viewBox="0.608 0.111 60.998 69.074"><path paint-order="stroke fill markers" fill-rule="evenodd" d="M61.427 59.387L50.276 39.99a24.432 24.432 0 0 0 5.385-15.326C55.661 11.126 44.646.111 31.107.111 17.567.11 6.553 11.126 6.553 24.665a24.436 24.436 0 0 0 5.385 15.326L.788 59.387a1.349 1.349 0 0 0 1.348 2.01l8.704-1.169 3.34 8.122a1.348 1.348 0 0 0 2.416.16l11.257-19.497.005-.01a24.753 24.753 0 0 0 6.5 0l.003.006 11.258 19.502a1.35 1.35 0 0 0 2.416-.161l3.34-8.122 8.703 1.169a1.352 1.352 0 0 0 1.349-2.01zM15.63 64.785l-2.43-5.912 2.181-3.56a1.349 1.349 0 0 0-2.3-1.41L10.876 57.5l-6.385.857 9.346-16.256a24.554 24.554 0 0 0 11.217 6.362L15.63 64.785zm15.477-18.264c-12.052 0-21.856-9.804-21.856-21.856 0-12.051 9.804-21.856 21.856-21.856 12.05 0 21.855 9.805 21.855 21.856 0 12.052-9.804 21.856-21.855 21.856zm20.23 10.98l-2.204-3.598a1.35 1.35 0 0 0-2.3 1.41l2.18 3.56-2.43 5.912-9.423-16.321a24.56 24.56 0 0 0 11.217-6.362l9.346 16.256-6.386-.857z"/></svg></svg>