<?xml version="1.0" encoding="utf-8"?>
<!-- Generator: Adobe Illustrator 24.2.0, SVG Export Plug-In . SVG Version: 6.00 Build 0)  -->
<svg version="1.1" id="Capa_1" xmlns="http://www.w3.org/2000/svg" xmlns:xlink="http://www.w3.org/1999/xlink" x="0px" y="0px"
	 viewBox="0 0 130 129" style="enable-background:new 0 0 130 129;" xml:space="preserve">
<style type="text/css">
	.st0{fill:#FFFFFF;}
</style>
<path class="st0" d="M117.2,107.8L97.4,73.3c15.1-18.8,12-46.3-6.8-61.4s-46.3-12-61.4,6.8c-12.8,16-12.8,38.6,0,54.6L9.3,107.8
	c-0.7,1.2-0.2,2.6,0.9,3.3c0.4,0.3,1,0.4,1.5,0.3l15.5-2.1l5.9,14.5c0.3,0.8,1.1,1.4,2.1,1.5h0.2c0.9,0,1.6-0.5,2.1-1.2l20-34.7l0,0
	c3.8,0.5,7.7,0.5,11.6,0l0,0l20,34.7c0.4,0.7,1.2,1.2,2.1,1.2h0.2c0.9-0.1,1.7-0.6,2.1-1.5l6-14.5l15.5,2.1c1.3,0.2,2.5-0.8,2.7-2.1
	C117.5,108.8,117.4,108.3,117.2,107.8L117.2,107.8z M35.8,117.4l-4.5-10.5l3.9-6.4c0.4-1.3-0.3-2.6-1.5-3c-0.9-0.3-1.9-0.1-2.5,0.6
	l-3.9,6.4l-11.4,1.6l16.6-29c5.5,5.5,12.4,9.4,19.9,11.3L35.8,117.4z M63.3,84.9c-21.5,0-38.9-17.4-38.9-38.9S41.8,7.2,63.3,7.2
	s38.9,17.4,38.9,38.9C102.1,67.5,84.7,84.9,63.3,84.9z M99.2,104.5l-3.9-6.4c-0.7-1.1-2.2-1.5-3.3-0.8c-1.1,0.7-1.5,2.2-0.8,3.3l0,0
	l3.9,6.4l-4.3,10.5L74,88.4c7.5-1.9,14.4-5.8,19.9-11.3l16.6,28.9L99.2,104.5z"/>
<path class="st0" d="M91.4,59.5c7.4-15.6,0.8-34.2-14.8-41.6c-4.2-2-8.8-3-13.4-3c-5.4,0-10.6,1.4-15.3,4c-1.2,0.7-1.6,2.1-0.9,3.3
	s2.1,1.6,3.3,0.9c12.8-7.1,28.9-2.5,35.9,10.3c4.1,7.4,4.4,16.4,0.8,24.1c-0.6,1.2-0.1,2.6,1.1,3.2C89.4,61.2,90.8,60.7,91.4,59.5
	L91.4,59.5L91.4,59.5z"/>
<path class="st0" d="M76,69.2c-12.8,7-28.8,2.3-35.9-10.5c-2.1-3.9-3.3-8.3-3.3-12.7c0-3.8,0.8-7.5,2.4-10.9
	c0.5-1.2-0.2-2.6-1.4-3.1c-1.1-0.4-2.4,0.1-2.9,1.1c-7.1,15.7-0.2,34.2,15.6,41.3c8.9,4,19.2,3.7,27.8-1c1.1-0.8,1.3-2.3,0.6-3.4
	C78.2,69.1,77.1,68.8,76,69.2z"/>
<path class="st0" d="M65.7,60.7c1.7,0,3-1.4,3-3V38.3c0-1.7-1.4-3-3-3h-4.8c-1.7-0.1-3.1,1.1-3.2,2.8c-0.1,1.7,1.1,3.1,2.8,3.2
	c0.1,0,0.3,0,0.4,0h1.8v16.3C62.7,59.3,64,60.7,65.7,60.7z"/>
</svg>
