<svg id="Capa_1" data-name="Capa 1" xmlns="http://www.w3.org/2000/svg" viewBox="0 0 130 129"><defs><style>.cls-1{fill:#fff;}</style></defs><path class="cls-1" d="M98.8,92.08,86.37,70.46a27.37,27.37,0,1,0-42.74,0L31.2,92.08a1.51,1.51,0,0,0,1.5,2.24L42.41,93l3.72,9.06a1.51,1.51,0,0,0,1.29.93h.1a1.49,1.49,0,0,0,1.3-.75L61.37,80.51h0a27.42,27.42,0,0,0,7.24,0h0l12.55,21.74a1.49,1.49,0,0,0,1.3.75h.1a1.51,1.51,0,0,0,1.29-.93L87.59,93l9.71,1.31a1.51,1.51,0,0,0,1.5-2.24Zm-51,6L45,91.5l2.43-4A1.5,1.5,0,0,0,44.91,86l-2.46,4-7.12,1L45.75,72.81a27.37,27.37,0,0,0,12.5,7.09ZM65,77.73A24.36,24.36,0,1,1,89.36,53.37,24.38,24.38,0,0,1,65,77.73ZM87.55,90l-2.46-4a1.5,1.5,0,0,0-2.56,1.58l2.43,4-2.71,6.59L71.75,79.9a27.37,27.37,0,0,0,12.5-7.09L94.67,90.93Z"/><path class="cls-1" d="M82.65,61.79A19.56,19.56,0,0,0,65,33.82a19.64,19.64,0,0,0-9.58,2.5,1.5,1.5,0,0,0,1.48,2.62,16.56,16.56,0,0,1,23,21.55,1.5,1.5,0,0,0,2.71,1.3Z"/><path class="cls-1" d="M73,67.87a16.55,16.55,0,0,1-24.51-14.5,16.3,16.3,0,0,1,1.48-6.85,1.51,1.51,0,0,0-2.74-1.25A19.56,19.56,0,0,0,74.42,70.51,1.51,1.51,0,0,0,73,67.87Z"/><path class="cls-1" d="M66.54,62.54a1.89,1.89,0,0,0,1.89-1.89V48.53a1.89,1.89,0,0,0-1.89-1.89h-3a1.9,1.9,0,1,0,0,3.79h1.11V60.65A1.89,1.89,0,0,0,66.54,62.54Z"/></svg>