<svg xmlns="http://www.w3.org/2000/svg" width="92.629" height="92.629" viewBox="0 0 92.629 92.629"><defs><style>.a{fill:#333;}</style></defs><g transform="translate(-1146.371 -5195.669)"><path class="a" d="M1192.686,5195.669A46.314,46.314,0,1,0,1239,5241.983a46.32,46.32,0,0,0-46.314-46.314Zm21.146,36.111q.031.684.031,1.374c0,14.047-10.693,30.245-30.247,30.246h0a30.094,30.094,0,0,1-16.294-4.775,21.639,21.639,0,0,0,2.536.147,21.327,21.327,0,0,0,13.2-4.551,10.641,10.641,0,0,1-9.931-7.383,10.594,10.594,0,0,0,4.8-.183,10.631,10.631,0,0,1-8.528-10.42c0-.048,0-.091,0-.136a10.555,10.555,0,0,0,4.815,1.33,10.641,10.641,0,0,1-3.292-14.192,30.187,30.187,0,0,0,21.913,11.107,10.636,10.636,0,0,1,18.114-9.7,21.289,21.289,0,0,0,6.751-2.58,10.674,10.674,0,0,1-4.675,5.88,21.19,21.19,0,0,0,6.1-1.674,21.6,21.6,0,0,1-5.3,5.5Zm0,0"/></g></svg>
